<svg width="173" height="168" viewBox="0 0 173 168" fill="none" xmlns="http://www.w3.org/2000/svg">
<path d="M21.3825 122.538C14.0295 114.826 30.1945 87.5081 49.6685 65.0481C74.6685 36.2151 113.668 37.0481 117.98 56.1421C118.368 58.1821 118.633 60.4071 118.783 62.9721C119.209 66.3301 119.352 69.9461 119.172 73.8441C119.415 82.0701 119.721 93.4821 127.245 97.5591C128.739 98.3691 130.053 99.5211 130.737 101.069C132.537 105.164 129.009 107 126.822 109.358C125.373 110.915 124.509 112.733 123.96 114.695C123.816 117.377 123.294 122.066 122.286 126.548C121.62 129.5 120.738 132.371 119.604 134.495C117.201 139.04 114.132 141.308 110.955 142.469C104.727 144.746 96.2045 145.556 90.6875 144.062C89.3645 143.702 87.9785 144.404 87.4565 145.673C87.3755 145.88 83.9165 154.875 84.1165 161.925C84.1255 165.329 81.6445 165.42 80.4035 165.162C68.6545 162.718 58.5975 160.551 46.8475 158.106C44.1455 157.544 41.0695 156.773 38.2345 155.851C35.9175 155.097 32.2915 154.273 33.6165 150.275C34.2715 147.597 34.9774 142.674 34.8284 141.106C34.1844 134.336 26.2535 127.646 21.3825 122.538Z" fill="white"/>
<path d="M26.5974 30.1551C36.9174 21.5291 49.1724 16.5791 67.6364 16.8531C75.4424 16.9691 83.5374 19.2911 87.0574 20.5041C99.7714 24.8831 110.181 35.2521 115.641 46.7551C117.003 49.6251 118.155 53.0311 119.02 56.6711C112.597 62.9791 100.894 70.4451 93.0294 74.8351C88.1854 77.5391 72.3874 84.9301 61.8634 85.4961L58.3564 85.6851C55.9654 85.1221 53.6574 85.4511 51.8824 86.7461C49.1794 88.7191 47.9404 92.8421 48.1104 96.2361C48.5574 105.148 53.1565 111.148 61.2365 114.82C58.7505 121.272 56.1144 127.843 55.7784 134.656C55.5254 139.784 56.7664 145.145 59.9244 149.248C61.7804 151.66 53.1644 154.511 49.0074 155.555C44.3894 156.715 36.2155 158.116 31.5005 158.937C26.0405 159.888 20.2764 160.113 14.8734 158.679C12.0664 157.934 9.35643 156.604 7.35443 154.501C4.89443 151.917 3.95045 148.579 4.03845 145.086C4.13345 141.348 4.48545 137.758 5.33945 134.095C6.84345 127.644 8.21644 113.465 4.45544 93.6341C3.31344 87.6121 2.53845 80.0511 2.95645 73.2171C3.48745 64.5271 6.62145 52.0501 14.8275 42.2191C18.6225 37.6721 22.4525 33.6171 26.5955 30.1541L26.5974 30.1551Z" fill="#645D5C"/>
<path d="M154.95 50.36C156.211 50.311 161.558 50.105 165.548 46.177C169.572 42.216 169.804 36.844 169.943 33.645C170.599 18.462 157.839 6.02399 154.425 2.63599C144.431 11.699 139.247 26.119 139.182 32.675C139.128 38.089 141.087 42.205 141.087 42.205C141.791 43.683 142.781 45.707 144.899 47.447C148.737 50.599 153.362 50.421 154.95 50.36Z" fill="#7ABEE6"/>
<path d="M154.951 47.96C155.422 47.942 155.891 47.907 156.361 47.863C157.056 47.797 156.073 47.914 156.528 47.845C156.698 47.819 156.868 47.791 157.038 47.761C157.56 47.667 158.078 47.551 158.59 47.41C160.628 46.849 162.507 45.849 163.997 44.335C166.803 41.485 167.384 37.55 167.54 33.765C167.887 25.353 163.937 17.416 158.837 11.026C156.949 8.65999 154.877 6.46399 152.73 4.33399H156.124C149.94 9.99899 145.421 17.599 142.947 25.59C142.465 27.145 142.059 28.729 141.79 30.335C141.764 30.491 141.657 31.292 141.71 30.844C141.677 31.128 141.647 31.412 141.626 31.697C141.552 32.694 141.576 33.697 141.654 34.693C141.806 36.613 142.259 38.522 142.908 40.333C143 40.59 143.103 40.842 143.199 41.097C143.118 40.881 142.978 40.632 143.142 40.955C143.504 41.666 143.835 42.384 144.252 43.067C146.589 46.903 150.732 48.12 154.952 47.96C158.041 47.843 158.036 52.643 154.952 52.76C150.358 52.935 145.73 51.714 142.387 48.406C139.778 45.824 138.216 42.211 137.439 38.665C135.588 30.224 138.548 21.787 142.503 14.376C145.157 9.40299 148.567 4.75399 152.731 0.939991C153.69 0.0619905 155.171 -0.00700951 156.125 0.939991C161.415 6.18799 166.269 12.059 169.284 18.934C171.321 23.581 172.535 28.545 172.346 33.645C172.168 38.458 171.275 43.207 168.072 46.983C164.827 50.809 159.853 52.568 154.953 52.76C151.864 52.881 151.869 48.081 154.953 47.96H154.951Z" fill="#211715"/>
<path d="M104.371 79.0911C103.6 79.5851 102.754 79.9641 101.893 80.2731C101.014 80.5881 100.112 80.7321 99.1865 80.8421C98.8565 80.8541 98.5475 80.7861 98.2615 80.6351C97.9635 80.5381 97.7065 80.3731 97.4895 80.1391C97.0735 79.7231 96.7595 79.0401 96.7865 78.4421C96.8145 77.8211 97.0185 77.1781 97.4895 76.7451L97.9755 76.3701C98.3495 76.1531 98.7535 76.0441 99.1865 76.0421C99.2555 76.0341 99.3255 76.0251 99.3945 76.0161L98.7565 76.1021C99.5645 75.9871 100.352 75.7701 101.105 75.4551L100.532 75.6971C101.025 75.4861 101.498 75.2371 101.949 74.9471C102.461 74.6191 103.222 74.5461 103.798 74.7051C104.355 74.8581 104.958 75.2891 105.232 75.8081C105.526 76.3651 105.674 77.0401 105.474 77.6571C105.277 78.2661 104.915 78.7421 104.371 79.0911Z" fill="#211715"/>
<path d="M122.74 122.722C121.906 122.64 121.068 122.583 120.229 122.59C119.849 122.593 119.469 122.609 119.09 122.641C118.906 122.656 118.724 122.684 118.54 122.699C118.618 122.693 119.102 122.61 118.772 122.672C118.66 122.693 118.548 122.71 118.437 122.731C117.712 122.868 117.001 123.075 116.312 123.339C116.222 123.373 116.133 123.411 116.044 123.445C115.755 123.555 116.496 123.24 116.211 123.375C116.029 123.462 115.843 123.542 115.662 123.63C115.251 123.829 114.849 124.046 114.452 124.271C113.359 124.89 111.779 124.566 111.168 123.41C110.567 122.273 110.862 120.787 112.029 120.126C113.624 119.222 115.351 118.446 117.161 118.103C119.017 117.751 120.867 117.739 122.74 117.924C123.392 117.988 123.959 118.149 124.437 118.627C124.853 119.043 125.167 119.726 125.14 120.324C125.086 121.519 124.078 122.856 122.74 122.724V122.722Z" fill="#211715"/>
<path d="M110.6 85.566C111.533 87.936 111.581 93.572 107.249 94.433C101.463 94.906 100.537 88.168 102.193 84.816C103.549 82.071 108.136 80.576 110.6 85.566Z" fill="#211715"/>
<path d="M61.8695 90.6491C60.5355 89.2061 59.0285 88.0961 57.0175 87.8551C55.2295 87.6411 53.4955 88.1691 52.3505 89.5951C50.2265 92.2411 50.2345 96.0481 50.8635 99.2071C52.1955 105.905 56.9605 110.496 63.1415 113.051C64.3385 113.546 65.1915 114.643 64.8175 116.003C64.5065 117.135 63.0705 118.177 61.8655 117.679C55.3265 114.976 49.8155 110.659 47.2155 103.9C44.7585 97.5131 44.7105 87.1931 52.0395 83.9051C56.7195 81.8051 61.9335 83.6521 65.2635 87.2551C67.3575 89.5211 63.9715 92.9241 61.8695 90.6491Z" fill="#211715"/>
<path d="M120.759 58.3291C113.882 65.0471 105.466 70.3761 97.2035 75.2131C90.5865 79.0861 83.5335 82.2421 76.2765 84.7121C71.6225 86.2951 66.7915 87.6031 61.8645 87.8971C58.7785 88.0811 58.7895 83.2801 61.8645 83.0971C65.9265 82.8551 69.9265 81.7421 73.7805 80.4891C77.6755 79.2231 81.4915 77.7131 85.2215 76.0241C92.3015 72.8181 98.9635 68.7481 105.382 64.3811C109.585 61.5221 113.721 58.4941 117.364 54.9351C119.575 52.7751 122.973 56.1661 120.759 58.3291Z" fill="#211715"/>
<path d="M120.727 59.8811C121.357 63.5471 121.667 67.2541 121.646 70.9741C121.63 73.8631 121.621 76.7211 121.816 79.6071C122.127 84.2101 122.715 89.8251 125.878 93.4101C127.764 95.5481 130.589 96.3841 132.239 98.8471C133.953 101.405 134.105 104.676 132.26 107.188C130.651 109.38 128.271 110.782 127.036 113.265C126.416 114.511 126.317 115.599 126.188 116.959C126.024 118.684 125.802 120.405 125.542 122.119C124.497 129.001 122.752 136.659 117.268 141.448C112.627 145.502 105.914 146.718 99.9425 147.127C96.8655 147.338 93.6975 147.232 90.6835 146.532C90.4665 146.482 90.2405 146.411 90.0235 146.364C89.7325 146.301 91.0825 146.34 89.7045 146.485C89.7755 146.478 89.2445 147.115 89.7605 146.325C89.7345 146.364 89.7215 146.429 89.7055 146.472C89.4835 147.064 89.2775 147.662 89.0775 148.262C88.2625 150.716 87.5775 153.221 87.0885 155.761C86.8135 157.187 86.6135 158.618 86.5385 160.069C86.4635 161.536 86.6255 163.03 86.0825 164.428C84.9395 167.371 82.0735 167.945 79.2835 167.373C75.1185 166.518 70.9595 165.633 66.8005 164.754C62.6705 163.882 58.5415 163.007 54.4115 162.139C50.1315 161.239 45.8135 160.452 41.5865 159.323C38.6055 158.527 39.8695 153.895 42.8625 154.694C49.9715 156.592 57.2885 157.845 64.4865 159.366C67.9595 160.1 71.4325 160.834 74.9065 161.563C76.7905 161.958 78.6745 162.356 80.5605 162.744C81.7825 162.995 80.4685 162.835 81.2305 162.849C81.3365 162.851 81.9735 162.857 81.3445 162.866C81.4725 162.84 81.5995 162.805 81.7235 162.762C81.4585 162.879 81.4485 162.872 81.6925 162.739L81.5365 162.853C81.7235 162.659 81.7385 162.642 81.5815 162.8C81.6105 163.078 81.6425 162.675 81.6415 162.634C81.6295 162.055 81.6985 161.412 81.7115 160.819C81.7465 159.203 81.9455 157.59 82.1955 155.994C82.6165 153.31 83.2875 150.664 84.0985 148.073C84.5215 146.722 84.9115 145.066 85.7125 143.871C86.6075 142.537 88.0895 141.675 89.6965 141.579C91.0455 141.498 92.3955 142.056 93.7295 142.226C96.7015 142.605 99.8155 142.466 102.772 142.031C105.551 141.621 108.63 141.004 111.136 139.808C116.88 137.067 118.954 130.782 120.171 124.981C120.82 121.886 121.272 118.746 121.505 115.592C121.738 112.438 123.304 109.464 125.538 107.237C126.32 106.458 127.179 105.757 127.927 104.945C128.58 104.237 128.941 103.66 128.783 102.768C128.575 101.596 127.673 100.651 126.709 100.029C125.533 99.2701 124.363 98.6231 123.321 97.6611C118.952 93.6281 117.73 87.2691 117.181 81.6181C116.518 74.7981 117.264 67.9311 116.099 61.1561C115.88 59.8801 116.439 58.5711 117.775 58.2041C118.93 57.8871 120.506 58.5971 120.727 59.8811Z" fill="#211715"/>
<path d="M118.375 71.1532C118.299 58.9682 114.748 46.9072 106.891 37.4562C103.156 32.9642 98.7154 29.0822 93.6524 26.1532C89.0634 23.4982 84.0695 21.8742 78.9175 20.7132C67.7995 18.2082 55.6045 18.7652 44.7895 22.4482C36.0415 25.4272 28.6065 30.9292 22.2335 37.5242C18.4565 41.4332 14.8505 45.5622 12.1555 50.3052C9.34646 55.2482 7.43645 60.6532 6.29945 66.2162C5.15145 71.8342 5.05146 77.5652 5.48646 83.2722C6.00146 90.0312 7.55945 96.6372 8.36845 103.36C9.52945 113.014 9.81946 122.996 8.09046 132.605C7.67246 134.929 7.07246 137.208 6.80546 139.56C6.46046 142.602 6.03644 145.948 6.88544 148.937C8.64344 155.121 15.6165 156.96 21.3015 157.252C27.3555 157.562 33.3475 156.224 39.2665 155.128C44.1215 154.229 49.0134 153.327 53.6574 151.602C54.5614 151.266 55.4194 150.91 56.2774 150.459C56.6974 150.239 57.1094 150.004 57.5024 149.737C58.1314 149.31 57.1445 149.969 57.7115 149.574C57.7845 149.51 57.8534 149.442 57.9194 149.37C58.0424 149.236 58.0115 149.284 57.8275 149.515L57.9145 149.379C57.7915 149.727 57.7665 149.782 57.8395 149.544C57.8395 149.613 57.7024 150.611 57.9414 150.588C57.7554 150.606 57.0075 149.264 56.9165 149.12C56.0095 147.69 55.3004 146.123 54.7384 144.527C52.5014 138.169 53.2684 131.246 55.1054 124.897C56.0654 121.578 57.3105 118.35 58.5545 115.129C59.0215 113.921 60.1674 113.085 61.5064 113.453C62.6614 113.77 63.6524 115.19 63.1824 116.405C60.5944 123.11 57.7475 130.175 58.1905 137.501C58.3695 140.459 59.1594 143.425 60.6394 146.002C61.3414 147.224 62.4975 148.295 62.5655 149.778C62.6165 150.89 62.1244 151.894 61.3764 152.697C59.7914 154.396 57.3425 155.315 55.2285 156.119C53.1265 156.918 50.9625 157.56 48.7745 158.078C43.1375 159.411 37.3925 160.381 31.6795 161.326C24.6385 162.491 16.8905 162.679 10.3045 159.528C7.34445 158.111 4.69146 155.76 3.24946 152.78C1.78246 149.751 1.53745 146.542 1.70545 143.226C1.88145 139.757 2.39045 136.353 3.13245 132.965C3.28045 132.291 3.40947 131.612 3.52647 130.932C3.59847 130.512 3.66546 130.09 3.72846 129.668C3.76146 129.444 3.79444 129.22 3.82444 128.996C3.75844 129.482 3.87945 128.54 3.89045 128.455C4.46545 123.636 4.57445 118.763 4.39945 113.916C4.15645 107.172 3.28346 100.507 2.06446 93.8752C0.784461 86.9112 0.0754524 79.7082 0.593452 72.6302C1.47345 60.5982 5.97546 48.9662 13.7795 39.7442C20.2565 32.0902 27.7115 25.0342 36.7975 20.5922C47.1095 15.5502 59.2144 13.6852 70.6194 14.5972C83.0254 15.5892 95.0434 19.8082 104.463 28.0802C114.162 36.5972 120.248 48.1252 122.278 60.8232C122.824 64.2412 123.148 67.6892 123.169 71.1522C123.188 74.2412 118.388 74.2452 118.369 71.1522L118.375 71.1532Z" fill="#211715"/>
</svg>
