<svg width="173" height="168" viewBox="0 0 173 168" fill="none" xmlns="http://www.w3.org/2000/svg">
<path d="M151.405 122.538C158.758 114.826 142.593 87.5081 123.119 65.0481C98.1189 36.2151 59.119 37.0481 54.807 56.1421C54.419 58.1821 54.154 60.4071 54.004 62.9721C53.578 66.3301 53.4349 69.9461 53.6149 73.8441C53.3719 82.0701 53.0659 93.4821 45.5419 97.5591C44.0479 98.3691 42.7339 99.5211 42.0499 101.069C40.2499 105.164 43.778 107 45.965 109.358C47.414 110.915 48.278 112.733 48.827 114.695C48.971 117.377 49.493 122.066 50.501 126.548C51.167 129.5 52.049 132.371 53.183 134.495C55.586 139.04 58.655 141.308 61.832 142.469C68.06 144.746 76.583 145.556 82.1 144.062C83.423 143.702 84.8089 144.404 85.3309 145.673C85.4119 145.88 88.8709 154.875 88.6709 161.925C88.6619 165.329 91.143 165.42 92.384 165.162C104.133 162.718 114.19 160.551 125.94 158.106C128.642 157.544 131.718 156.773 134.553 155.851C136.87 155.097 140.496 154.273 139.171 150.275C138.516 147.597 137.81 142.674 137.959 141.106C138.603 134.336 146.534 127.646 151.405 122.538Z" fill="white"/>
<path d="M146.19 30.1551C135.87 21.5291 123.615 16.5791 105.151 16.8531C97.345 16.9691 89.25 19.2911 85.73 20.5041C73.016 24.8831 62.606 35.2521 57.146 46.7551C55.784 49.6251 54.632 53.0311 53.767 56.6711C60.19 62.9791 71.893 70.4451 79.758 74.8351C84.602 77.5391 100.4 84.9301 110.924 85.4961L114.431 85.6851C116.822 85.1221 119.13 85.4511 120.905 86.7461C123.608 88.7191 124.847 92.8421 124.677 96.2361C124.23 105.148 119.631 111.148 111.551 114.82C114.037 121.272 116.673 127.843 117.009 134.656C117.262 139.784 116.021 145.145 112.863 149.248C111.007 151.66 119.623 154.511 123.78 155.555C128.398 156.715 136.572 158.116 141.287 158.937C146.747 159.888 152.511 160.113 157.914 158.679C160.721 157.934 163.431 156.604 165.433 154.501C167.893 151.917 168.837 148.579 168.749 145.086C168.654 141.348 168.302 137.758 167.448 134.095C165.944 127.644 164.571 113.465 168.332 93.6341C169.474 87.6121 170.249 80.0511 169.831 73.2171C169.3 64.5271 166.166 52.0501 157.96 42.2191C154.165 37.6721 150.335 33.6171 146.192 30.1541L146.19 30.1551Z" fill="#645D5C"/>
<path d="M17.837 50.36C16.576 50.311 11.229 50.105 7.239 46.177C3.215 42.216 2.98298 36.844 2.84398 33.645C2.18798 18.462 14.948 6.02399 18.362 2.63599C28.356 11.699 33.541 26.119 33.606 32.675C33.66 38.089 31.7 42.205 31.7 42.205C30.996 43.683 30.006 45.707 27.888 47.447C24.05 50.599 19.425 50.421 17.837 50.36Z" fill="#7ABEE6"/>
<path d="M17.8369 47.96C17.3659 47.942 16.8969 47.907 16.4269 47.863C15.7319 47.797 16.7149 47.914 16.2599 47.845C16.0899 47.819 15.9199 47.791 15.7499 47.761C15.2279 47.667 14.7099 47.551 14.1979 47.41C12.1599 46.849 10.2809 45.849 8.79088 44.335C5.98488 41.485 5.40388 37.55 5.24788 33.765C4.90088 25.353 8.85089 17.416 13.9509 11.026C15.8389 8.65999 17.9109 6.46399 20.0579 4.33399H16.6639C22.8479 9.99899 27.3669 17.599 29.8409 25.59C30.3229 27.145 30.7289 28.729 30.9979 30.335C31.0239 30.491 31.1309 31.292 31.0779 30.844C31.1109 31.128 31.1409 31.412 31.1619 31.697C31.2359 32.694 31.2119 33.697 31.1339 34.693C30.9819 36.613 30.5289 38.522 29.8799 40.333C29.7879 40.59 29.6849 40.842 29.5889 41.097C29.6699 40.881 29.8099 40.632 29.6459 40.955C29.2839 41.666 28.9529 42.384 28.5359 43.067C26.1989 46.903 22.0559 48.12 17.8359 47.96C14.7469 47.843 14.7519 52.643 17.8359 52.76C22.4299 52.935 27.0579 51.714 30.4009 48.406C33.0099 45.824 34.5719 42.211 35.3489 38.665C37.1999 30.224 34.2399 21.787 30.2849 14.376C27.6309 9.40299 24.2209 4.75399 20.0569 0.939991C19.0979 0.0619905 17.6169 -0.00700951 16.6629 0.939991C11.3729 6.18799 6.5189 12.059 3.5039 18.934C1.4669 23.581 0.252884 28.545 0.441884 33.645C0.619884 38.458 1.5129 43.207 4.7159 46.983C7.9609 50.809 12.9349 52.568 17.8349 52.76C20.9239 52.881 20.9189 48.081 17.8349 47.96H17.8369Z" fill="#211715"/>
<path d="M68.4169 79.0911C69.1879 79.5851 70.0339 79.9641 70.8949 80.2731C71.7739 80.5881 72.6759 80.7321 73.6009 80.8421C73.9309 80.8541 74.2399 80.7861 74.5259 80.6351C74.8239 80.5381 75.0809 80.3731 75.2979 80.1391C75.7139 79.7231 76.0279 79.0401 76.0009 78.4421C75.9729 77.8211 75.7689 77.1781 75.2979 76.7451L74.8119 76.3701C74.4379 76.1531 74.0339 76.0441 73.6009 76.0421C73.5319 76.0341 73.4619 76.0251 73.3929 76.0161L74.0309 76.1021C73.2229 75.9871 72.4359 75.7701 71.6829 75.4551L72.2559 75.6971C71.7629 75.4861 71.2899 75.2371 70.8389 74.9471C70.3269 74.6191 69.5659 74.5461 68.9899 74.7051C68.4329 74.8581 67.8299 75.2891 67.5559 75.8081C67.2619 76.3651 67.1139 77.0401 67.3139 77.6571C67.5109 78.2661 67.8729 78.7421 68.4169 79.0911Z" fill="#211715"/>
<path d="M50.0469 122.722C50.8809 122.64 51.7189 122.583 52.5579 122.59C52.9379 122.593 53.3179 122.609 53.6969 122.641C53.8809 122.656 54.0629 122.684 54.2469 122.699C54.1689 122.693 53.6849 122.61 54.0149 122.672C54.1269 122.693 54.2389 122.71 54.3499 122.731C55.0749 122.868 55.7859 123.075 56.4749 123.339C56.5649 123.373 56.6539 123.411 56.7429 123.445C57.0319 123.555 56.2909 123.24 56.5759 123.375C56.7579 123.462 56.9439 123.542 57.1249 123.63C57.5359 123.829 57.9379 124.046 58.3349 124.271C59.4279 124.89 61.0079 124.566 61.6189 123.41C62.2199 122.273 61.9249 120.787 60.7579 120.126C59.1629 119.222 57.4359 118.446 55.6259 118.103C53.7699 117.751 51.9199 117.739 50.0469 117.924C49.3949 117.988 48.8279 118.149 48.3499 118.627C47.9339 119.043 47.6199 119.726 47.6469 120.324C47.7009 121.519 48.7089 122.856 50.0469 122.724V122.722Z" fill="#211715"/>
<path d="M62.1879 85.566C61.2549 87.936 61.2069 93.572 65.5389 94.433C71.3249 94.906 72.2509 88.168 70.5949 84.816C69.2389 82.071 64.6519 80.576 62.1879 85.566Z" fill="#211715"/>
<path d="M110.918 90.6491C112.252 89.2061 113.759 88.0961 115.77 87.8551C117.558 87.6411 119.292 88.1691 120.437 89.5951C122.561 92.2411 122.553 96.0481 121.924 99.2071C120.592 105.905 115.827 110.496 109.646 113.051C108.449 113.546 107.596 114.643 107.97 116.003C108.281 117.135 109.717 118.177 110.922 117.679C117.461 114.976 122.972 110.659 125.572 103.9C128.029 97.5131 128.077 87.1931 120.748 83.9051C116.068 81.8051 110.854 83.6521 107.524 87.2551C105.43 89.5211 108.816 92.9241 110.918 90.6491Z" fill="#211715"/>
<path d="M52.028 58.3291C58.905 65.0471 67.321 70.3761 75.584 75.2131C82.201 79.0861 89.254 82.2421 96.511 84.7121C101.165 86.2951 105.996 87.6031 110.923 87.8971C114.009 88.0811 113.998 83.2801 110.923 83.0971C106.861 82.8551 102.861 81.7421 99.007 80.4891C95.112 79.2231 91.296 77.7131 87.566 76.0241C80.486 72.8181 73.824 68.7481 67.405 64.3811C63.202 61.5221 59.066 58.4941 55.423 54.9351C53.212 52.7751 49.814 56.1661 52.028 58.3291Z" fill="#211715"/>
<path d="M52.0599 59.8811C51.4299 63.5471 51.1199 67.2541 51.1409 70.9741C51.1569 73.8631 51.1659 76.7211 50.9709 79.6071C50.6599 84.2101 50.0719 89.8251 46.9089 93.4101C45.0229 95.5481 42.1979 96.3841 40.5479 98.8471C38.8339 101.405 38.6819 104.676 40.5269 107.188C42.1359 109.38 44.5159 110.782 45.7509 113.265C46.3709 114.511 46.4699 115.599 46.5989 116.959C46.7629 118.684 46.9849 120.405 47.2449 122.119C48.2899 129.001 50.0349 136.659 55.5189 141.448C60.1599 145.502 66.8729 146.718 72.8449 147.127C75.9219 147.338 79.0899 147.232 82.1039 146.532C82.3209 146.482 82.5469 146.411 82.7639 146.364C83.0549 146.301 81.7049 146.34 83.0829 146.485C83.0119 146.478 83.5429 147.115 83.0269 146.325C83.0529 146.364 83.0659 146.429 83.0819 146.472C83.3039 147.064 83.5099 147.662 83.7099 148.262C84.5249 150.716 85.2099 153.221 85.6989 155.761C85.9739 157.187 86.1739 158.618 86.2489 160.069C86.3239 161.536 86.1619 163.03 86.7049 164.428C87.8479 167.371 90.7139 167.945 93.5039 167.373C97.6689 166.518 101.828 165.633 105.987 164.754C110.117 163.882 114.246 163.007 118.376 162.139C122.656 161.239 126.974 160.452 131.201 159.323C134.182 158.527 132.918 153.895 129.925 154.694C122.816 156.592 115.499 157.845 108.301 159.366C104.828 160.1 101.355 160.834 97.8809 161.563C95.9969 161.958 94.1129 162.356 92.2269 162.744C91.0049 162.995 92.3189 162.835 91.5569 162.849C91.4509 162.851 90.8139 162.857 91.4429 162.866C91.3149 162.84 91.1879 162.805 91.0639 162.762C91.3289 162.879 91.3389 162.872 91.0949 162.739L91.2509 162.853C91.0639 162.659 91.0489 162.642 91.2059 162.8C91.1769 163.078 91.1449 162.675 91.1459 162.634C91.1579 162.055 91.0889 161.412 91.0759 160.819C91.0409 159.203 90.8419 157.59 90.5919 155.994C90.1709 153.31 89.4999 150.664 88.6889 148.073C88.2659 146.722 87.8759 145.066 87.0749 143.871C86.1799 142.537 84.6979 141.675 83.0909 141.579C81.7419 141.498 80.3919 142.056 79.0579 142.226C76.0859 142.605 72.9719 142.466 70.0149 142.031C67.2359 141.621 64.1569 141.004 61.6509 139.808C55.9069 137.067 53.8329 130.782 52.6159 124.981C51.9669 121.886 51.5149 118.746 51.2819 115.592C51.0489 112.438 49.4829 109.464 47.2489 107.237C46.4669 106.458 45.6079 105.757 44.8599 104.945C44.2069 104.237 43.8459 103.66 44.0039 102.768C44.2119 101.596 45.1139 100.651 46.0779 100.029C47.2539 99.2701 48.4239 98.6231 49.4659 97.6611C53.8349 93.6281 55.0569 87.2691 55.6059 81.6181C56.2689 74.7981 55.5229 67.9311 56.6879 61.1561C56.9069 59.8801 56.3479 58.5711 55.0119 58.2041C53.8569 57.8871 52.2809 58.5971 52.0599 59.8811Z" fill="#211715"/>
<path d="M54.412 71.1532C54.488 58.9682 58.039 46.9072 65.896 37.4562C69.631 32.9642 74.072 29.0822 79.135 26.1532C83.724 23.4982 88.718 21.8742 93.87 20.7132C104.988 18.2082 117.183 18.7652 127.998 22.4482C136.746 25.4272 144.181 30.9292 150.554 37.5242C154.331 41.4332 157.937 45.5622 160.632 50.3052C163.441 55.2482 165.351 60.6532 166.488 66.2162C167.636 71.8342 167.736 77.5652 167.301 83.2722C166.786 90.0312 165.228 96.6372 164.419 103.36C163.258 113.014 162.968 122.996 164.697 132.605C165.115 134.929 165.715 137.208 165.982 139.56C166.327 142.602 166.751 145.948 165.902 148.937C164.144 155.121 157.171 156.96 151.486 157.252C145.432 157.562 139.44 156.224 133.521 155.128C128.666 154.229 123.774 153.327 119.13 151.602C118.226 151.266 117.368 150.91 116.51 150.459C116.09 150.239 115.678 150.004 115.285 149.737C114.656 149.31 115.643 149.969 115.076 149.574C115.003 149.51 114.934 149.442 114.868 149.37C114.745 149.236 114.776 149.284 114.96 149.515L114.873 149.379C114.996 149.727 115.021 149.782 114.948 149.544C114.948 149.613 115.085 150.611 114.846 150.588C115.032 150.606 115.78 149.264 115.871 149.12C116.778 147.69 117.487 146.123 118.049 144.527C120.286 138.169 119.519 131.246 117.682 124.897C116.722 121.578 115.477 118.35 114.233 115.129C113.766 113.921 112.62 113.085 111.281 113.453C110.126 113.77 109.135 115.19 109.605 116.405C112.193 123.11 115.04 130.175 114.597 137.501C114.418 140.459 113.628 143.425 112.148 146.002C111.446 147.224 110.29 148.295 110.222 149.778C110.171 150.89 110.663 151.894 111.411 152.697C112.996 154.396 115.445 155.315 117.559 156.119C119.661 156.918 121.825 157.56 124.013 158.078C129.65 159.411 135.395 160.381 141.108 161.326C148.149 162.491 155.897 162.679 162.483 159.528C165.443 158.111 168.096 155.76 169.538 152.78C171.005 149.751 171.25 146.542 171.082 143.226C170.906 139.757 170.397 136.353 169.655 132.965C169.507 132.291 169.378 131.612 169.261 130.932C169.189 130.512 169.122 130.09 169.059 129.668C169.026 129.444 168.993 129.22 168.963 128.996C169.029 129.482 168.908 128.54 168.897 128.455C168.322 123.636 168.213 118.763 168.388 113.916C168.631 107.172 169.504 100.507 170.723 93.8752C172.003 86.9112 172.712 79.7082 172.194 72.6302C171.314 60.5982 166.812 48.9662 159.008 39.7442C152.531 32.0902 145.076 25.0342 135.99 20.5922C125.678 15.5502 113.573 13.6852 102.168 14.5972C89.762 15.5892 77.744 19.8082 68.324 28.0802C58.625 36.5972 52.539 48.1252 50.509 60.8232C49.963 64.2412 49.639 67.6892 49.618 71.1522C49.599 74.2412 54.399 74.2452 54.418 71.1522L54.412 71.1532Z" fill="#211715"/>
</svg>
